<svg width="1440" height="666" viewBox="0 0 1440 666" fill="none" xmlns="http://www.w3.org/2000/svg">
<path d="M180 342.181C180 298.795 180 277.102 193.287 263.189C206.574 249.276 228.244 248.278 271.584 246.282L1219.58 202.624C1266.73 200.453 1290.3 199.368 1305.15 213.548C1320 227.729 1320 251.327 1320 298.523V570C1320 615.255 1320 637.882 1305.94 651.941C1291.88 666 1269.25 666 1224 666H276C230.745 666 208.118 666 194.059 651.941C180 637.882 180 615.255 180 570V342.181Z" fill="#EAB221" fill-opacity="0.1"/>
<mask id="mask0_0_8" style="mask-type:alpha" maskUnits="userSpaceOnUse" x="180" y="4" width="1140" height="662">
<path d="M180 164.626C180 122.009 180 100.7 192.967 86.8562C205.933 73.012 227.196 71.6185 269.722 68.8315L1217.72 6.70294C1265.66 3.56142 1289.63 1.99066 1304.81 16.2154C1320 30.4401 1320 54.4592 1320 102.497V570C1320 615.255 1320 637.882 1305.94 651.941C1291.88 666 1269.25 666 1224 666H276C230.745 666 208.118 666 194.059 651.941C180 637.882 180 615.255 180 570V164.626Z" fill="#F0EBFD"/>
</mask>
<g mask="url(#mask0_0_8)">
<path d="M11.551 459.347C310.292 264.721 918.826 -41.5271 760.522 390.43C562.641 930.377 1362.07 315.435 1528.98 29.728" stroke="#EAB221" stroke-opacity="0.1" stroke-width="40"/>
<circle cx="1247" cy="602" r="151" fill="#EAB221" fill-opacity="0.1"/>
</g>
<path d="M154 665.5H281.5L142.5 535L2 407L0 517L31 544.5L0 573.5L2 665.5H31L92 604L154 665.5Z" fill="#D9A41D" fill-opacity="0.2"/>
<path d="M1285.5 28H1158L1297 158.5L1437.5 286.5L1439.5 176.5L1408.5 149L1439.5 120L1437.5 28H1408.5L1347.5 89.5L1285.5 28Z" fill="#D9A41D" fill-opacity="0.2"/>
</svg>
