<svg width="417" height="300" viewBox="0 0 417 300" fill="none" xmlns="http://www.w3.org/2000/svg">
<path d="M0.916016 160.865C0.916016 147.909 0.916016 141.431 4.87345 137.254C8.83088 133.077 15.2995 132.728 28.2368 132.03L360.229 114.11C374.507 113.339 381.647 112.954 386.155 117.225C390.663 121.496 390.663 128.646 390.663 142.945V271.123C390.663 284.736 390.663 291.542 386.434 295.771C382.205 300 375.398 300 361.785 300H29.7932C16.1804 300 9.37395 300 5.14498 295.771C0.916016 291.542 0.916016 284.736 0.916016 271.123V160.865Z" fill="#EAB221" fill-opacity="0.1"/>
<mask id="mask0_1_215" style="mask-type:alpha" maskUnits="userSpaceOnUse" x="0" y="43" width="391" height="257">
<path d="M0.916016 97.7546C0.916016 85.0375 0.916016 78.6789 4.77369 74.5241C8.63137 70.3694 14.9725 69.8985 27.6547 68.9567L359.647 44.3032C374.172 43.2246 381.434 42.6853 386.048 46.9696C390.663 51.254 390.663 58.5363 390.663 73.1011V271.123C390.663 284.736 390.663 291.542 386.434 295.771C382.205 300 375.398 300 361.785 300H29.7932C16.1804 300 9.37395 300 5.14498 295.771C0.916016 291.542 0.916016 284.736 0.916016 271.123V97.7546Z" fill="#F0EBFD"/>
</mask>
<g mask="url(#mask0_1_215)">
<path d="M-56.6748 229.349C45.4597 162.809 253.507 58.1084 199.385 205.787C131.734 390.386 405.043 180.148 462.109 82.4694" stroke="#EAB221" stroke-opacity="0.1" stroke-width="12.0322"/>
<circle cx="365.704" cy="278.12" r="51.6243" fill="#EAB221" fill-opacity="0.1"/>
<g opacity="0.14">
<path d="M138.467 310.595L138.867 310.611C133.891 304.428 122.347 299.558 109.263 298.135C105.72 297.753 103.481 296.331 102.781 294.017C102.267 292.313 102.592 290.211 103.735 287.931C104.878 285.661 106.711 283.428 109.044 281.476C109.936 280.73 110.956 279.778 112.039 278.759C117.069 274.038 123.962 267.586 129.713 270.903C132.859 272.722 133.332 275.938 133.828 279.336C134.332 282.784 134.852 286.353 138.437 288.2C139.517 288.755 140.774 289.165 142.207 289.433L142.231 288.823C140.888 288.569 139.721 288.181 138.709 287.66C135.399 285.954 134.918 282.687 134.413 279.239C133.917 275.841 133.405 272.333 130.005 270.373C125.517 267.788 120.533 270.627 116.159 274.242C112.699 276.78 109.494 280.001 107.154 281.862C99.1011 288.257 96.2958 298.29 106.584 299.963C116.712 301.619 125.851 305.471 131.522 310.308L138.467 310.595Z" fill="#44A798"/>
<path d="M124.782 200.98C123.617 200.764 122.411 200.355 121.135 199.923C118.949 199.184 116.714 198.434 114.513 198.567C112.569 198.299 110.642 198.372 108.841 199.273C106.694 200.35 105.891 203.135 106.679 205.241C109.153 211.845 118.917 212.575 119.973 220.035L119.973 220.045C120.69 223.171 118.808 226.634 116.804 228.87C113.396 232.653 107.343 235.64 101.962 236.087C101.722 236.068 101.472 236.058 101.232 236.038C99.0932 235.893 96.7237 235.738 94.3654 235.805C90.3615 235.665 86.1826 235.89 82.9216 237.734C77.774 240.637 78.8578 248.659 83.6378 247.436C83.8512 247.615 84.0854 247.775 84.3316 247.885C85.296 248.334 86.9638 248.491 89.3633 246.632C91.9695 244.62 94.3592 243.763 96.8792 243.914C99.099 244.052 101.468 244.979 104.559 246.906C107.297 248.619 109.895 251.088 112.637 253.713C116.877 257.751 121.271 261.936 126.37 263.272C129.495 264.088 133.112 264.132 137.131 263.389C139.1 263.027 141.177 262.478 143.331 261.742L143.357 261.101C141.151 261.866 139.034 262.433 137.024 262.804C133.096 263.529 129.559 263.489 126.523 262.696C121.573 261.397 117.237 257.274 113.046 253.278C110.274 250.642 107.657 248.142 104.87 246.397C101.691 244.406 99.233 243.456 96.9131 243.314C94.2334 243.147 91.7216 244.049 88.9914 246.156C87.2746 247.481 85.7551 247.881 84.5841 247.333C83.5412 246.841 82.8781 245.622 82.8201 244.055C82.7506 242.278 83.5644 239.715 86.0565 238.3C90.3123 235.894 96.3503 236.305 101.199 236.628C101.699 236.658 102.189 236.698 102.669 236.727C108.468 237.088 115.941 233.927 120.032 229.379C122.087 227.095 124.014 223.513 123.271 220.286L123.271 220.276C122.498 217.048 119.271 214.764 116.141 212.565C113.889 210.971 111.763 209.473 110.571 207.682C109.427 205.972 109.015 204.222 109.404 202.764C109.734 201.534 110.595 200.556 111.976 199.859C114.83 198.419 117.945 199.475 120.952 200.487C122.247 200.93 123.474 201.339 124.678 201.568C128.14 202.217 132.259 201.99 136.271 200.937C140.059 199.935 143.445 198.235 145.936 196.099L145.969 195.269C143.514 197.516 140.034 199.312 136.114 200.349C132.243 201.378 128.115 201.604 124.782 200.98Z" fill="#44A798"/>
<path d="M95.4845 299.932C90.1238 296.861 85.0469 293.963 83.4034 290.68C82.3915 288.655 82.2491 286.945 82.9602 285.45C84.9046 281.427 92.8802 279.75 99.9159 278.266C105.223 277.155 109.802 276.184 111.688 274.395C113.948 272.25 114.894 269.902 114.502 267.42C113.391 260.319 101.807 254.204 98.2759 252.5C92.6802 249.791 88.5906 250.039 83.6565 253.371C83.0385 253.787 82.3872 254.283 81.6948 254.807C78.6564 257.101 74.8643 259.947 71.1262 258.415C68.1969 257.216 65.0978 257.764 62.1719 260.003C59.7314 261.881 57.5166 264.89 56.1093 268.262C55.5995 269.485 55.1477 270.76 54.7076 271.995C53.0815 276.581 51.5358 280.91 47.0812 283.529C45.6442 284.374 43.9374 285.199 42.0844 285.917L42.0585 286.567C44.0432 285.814 45.862 284.944 47.3915 284.043C52.0311 281.311 53.6792 276.675 55.2813 272.188C55.721 270.963 56.1624 269.697 56.6718 268.485C58.0355 265.201 60.1767 262.279 62.5442 260.469C64.4571 259.002 67.462 257.547 70.9042 258.958C74.9576 260.623 78.8946 257.662 82.0571 255.272C82.7392 254.758 83.39 254.273 83.998 253.856C88.716 250.666 92.6447 250.431 98.0141 253.031C100.02 254.003 103.908 256.042 107.428 258.788C111.297 261.819 113.475 264.753 113.907 267.497C114.257 269.776 113.379 271.946 111.275 273.947C109.514 275.621 104.783 276.616 99.7893 277.67C92.6123 279.178 84.485 280.889 82.4197 285.178C81.6222 286.83 81.7758 288.76 82.8618 290.939C84.589 294.386 89.7344 297.327 95.1836 300.441C100.045 303.221 105.023 306.075 107.659 309.358L108.44 309.389C105.824 305.847 100.601 302.852 95.4845 299.932Z" fill="#44A798"/>
<path d="M84.0172 303.013C80.8288 301.273 77.8173 299.619 76.4267 297.539C74.2508 294.285 73.4944 290.626 74.3013 287.23C75.1209 283.764 77.5163 280.752 81.0335 278.767C82.4485 277.972 85.1733 277.258 88.0703 276.501C93.8642 274.988 100.428 273.275 101.425 269.886C101.75 268.777 101.66 267.761 101.154 266.868C99.8059 264.479 95.7681 263.426 92.5338 262.586C91.1351 262.219 89.9245 261.91 89.187 261.55C85.1943 259.617 82.2701 259.801 78.7473 262.177C78.2217 262.537 77.7046 262.937 77.1462 263.366C75.7085 264.482 74.2287 265.646 72.5635 265.93C71.746 266.068 70.9814 265.887 70.1671 265.694C69.1939 265.465 68.1811 265.224 67.1239 265.593C62.9168 267.029 61.1656 272.743 59.7597 277.338C59.368 278.616 58.9991 279.824 58.6198 280.791C56.1437 287.088 52.7633 295.704 46.1119 299.619C44.8186 300.38 43.2259 301.108 41.4983 301.701L41.4727 302.341C43.3317 301.724 45.0465 300.95 46.4223 300.133C53.2482 296.114 56.6834 287.38 59.1827 281.004C59.5732 280.007 59.9425 278.789 60.3446 277.502C61.7153 273.036 63.4101 267.48 67.3326 266.143C68.2368 265.838 69.1108 266.043 70.0443 266.261C70.8786 266.454 71.7525 266.66 72.6808 266.506C74.4974 266.198 76.0388 264.996 77.5286 263.832C78.0666 263.413 78.5837 263.012 79.0884 262.672C82.4055 260.428 85.1584 260.267 88.9349 262.091C89.7216 262.474 90.9618 262.794 92.3902 263.171C95.5252 263.988 99.4141 265.005 100.641 267.169C101.072 267.928 101.139 268.752 100.86 269.723C99.9558 272.795 93.2909 274.534 87.9229 275.924C84.8638 276.725 82.2202 277.411 80.7436 278.244C77.0823 280.324 74.5816 283.462 73.7252 287.097C72.8815 290.662 73.6616 294.482 75.932 297.88C77.4079 300.084 80.4782 301.77 83.7355 303.543C86.61 305.111 89.543 306.722 91.3876 308.73L92.2283 308.763C90.3448 306.473 87.1468 304.722 84.0172 303.013Z" fill="#44A798"/>
<path d="M73.4276 303.663L73.1893 303.353C70.2287 299.416 66.8777 294.963 68.7155 289.843C69.1668 288.578 69.8872 287.354 70.5755 286.179C72.0923 283.583 73.6627 280.899 72.5736 277.537C71.9132 275.496 70.8835 274.924 70.1268 274.794C68.9118 274.595 67.5565 275.403 66.3274 277.068C64.4628 279.59 63.5486 282.661 62.6684 285.633C62.2403 287.07 61.8002 288.556 61.2644 289.928C59.0896 295.454 56.2222 302.768 51.0469 307.122L51.9176 307.157C56.8875 302.674 59.6869 295.558 61.8169 290.15C62.3639 288.748 62.8144 287.253 63.2429 285.806C64.1111 282.884 65.0129 279.873 66.8143 277.428C67.8945 275.978 69.0669 275.233 70.0329 275.391C70.8695 275.525 71.549 276.334 72.0048 277.725C73.0137 280.833 71.573 283.281 70.0563 285.877C69.3567 287.082 68.6256 288.326 68.1522 289.641L68.1518 289.651C66.2116 295.076 69.6675 299.665 72.7134 303.725L72.9516 304.035C73.0277 304.139 73.1422 304.284 73.2756 304.459C74.295 305.793 75.1787 307.011 75.9167 308.113L76.6673 308.143C75.7411 306.733 74.6948 305.318 73.7515 304.087C73.6081 303.911 73.5036 303.767 73.4276 303.663Z" fill="#44A798"/>
<path d="M103.65 210.596C100.93 209.377 98.4376 208.894 96.6315 209.227C94.0605 209.701 92.5798 211.605 91.1557 213.453C90.6385 214.112 90.1001 214.806 89.5262 215.408C88.0243 216.979 86.2677 217.758 84.4048 218.586C82.464 219.45 80.4595 220.334 78.7875 222.189L78.7592 222.232C78.0932 223.237 77.6325 224.179 77.3773 225.029C75.7049 228.485 75.4772 232.536 78.9046 234.024C83.2242 235.895 88.3818 230.061 92.2279 228.652C97.4481 226.734 102.405 229.88 107.731 228.593C111.542 227.673 114.149 223.623 113.958 221.916C113.937 221.711 113.895 221.498 113.845 221.293C113.845 221.165 113.838 221.045 113.824 220.917C113.633 219.168 112.536 217.248 110.646 215.357C108.798 213.494 106.249 211.765 103.65 210.596ZM84.6596 219.139C86.4942 218.325 88.3854 217.482 89.9723 215.826C90.5674 215.203 91.1129 214.502 91.6372 213.822C93.0613 211.988 94.4145 210.253 96.7447 209.822C100.187 209.185 106.369 211.914 110.228 215.775C112.019 217.567 113.053 219.366 113.229 220.974C113.42 222.695 111.833 223.969 108.54 224.769C106.259 225.321 103.886 225.511 101.584 225.687C98.5178 225.934 95.3519 226.181 92.3345 227.285C91.2367 227.689 90.16 228.255 89.1258 228.807C86.4554 230.23 83.9266 231.568 80.9524 230.278C80.0247 229.874 79.2812 229.399 78.7644 228.882C77.2775 227.395 77.4339 225.327 79.2478 222.565C80.8418 220.83 82.7826 219.967 84.6596 219.139Z" fill="#44A798"/>
<path d="M126.147 282.959C125.893 282.788 125.608 282.656 125.301 282.554C123.362 281.915 121.027 282.404 118.903 283.883C116.429 285.609 114.757 288.309 114.66 290.761C114.649 291.021 114.659 291.292 114.679 291.543C114.786 292.63 115.312 293.513 116.247 294.182C118.119 295.51 121.391 295.67 123.526 295.154C124.761 294.852 125.913 293.865 126.764 292.376C127.54 291.023 128.018 289.338 128.081 287.747C128.159 285.555 127.457 283.803 126.147 282.959ZM123.389 294.567C121.678 294.99 118.441 294.991 116.598 293.685C115.809 293.122 115.367 292.383 115.283 291.477C115.262 291.246 115.251 291.015 115.261 290.775C115.351 288.503 116.915 285.979 119.245 284.368C121.214 283.003 123.357 282.547 125.118 283.118C125.376 283.199 125.611 283.318 125.826 283.457C126.96 284.194 127.56 285.741 127.481 287.723C127.358 290.565 125.768 293.99 123.389 294.567Z" fill="#44A798"/>
<path d="M128.335 249.469C128.624 249.568 128.934 249.621 129.256 249.641C131.295 249.756 133.424 248.68 135.093 246.701C137.036 244.394 137.951 241.353 137.411 238.96C137.354 238.706 137.275 238.446 137.19 238.209C136.806 237.186 136.069 236.47 134.992 236.066C132.84 235.268 129.639 235.96 127.71 237.011C126.595 237.622 125.738 238.873 125.301 240.533C124.902 242.04 124.876 243.791 125.227 245.345C125.72 247.482 126.851 248.993 128.335 249.469ZM127.994 237.543C129.537 236.691 132.664 235.852 134.782 236.637C135.69 236.976 136.308 237.576 136.624 238.429C136.704 238.647 136.774 238.867 136.827 239.102C137.328 241.32 136.47 244.162 134.637 246.321C133.089 248.15 131.136 249.145 129.287 249.049C129.018 249.038 128.759 248.983 128.515 248.905C127.23 248.486 126.25 247.147 125.813 245.212C125.197 242.435 125.846 238.716 127.994 237.543Z" fill="#44A798"/>
<path d="M113.097 240.004C112.663 240.233 112.156 240.711 112.22 241.677C112.278 242.58 112.869 243.933 113.482 244.572C114.365 245.495 116.207 245.359 117.467 244.697C118.366 244.225 118.908 243.533 118.937 242.797C118.945 242.654 118.931 242.504 118.899 242.355C118.737 241.571 118.001 240.821 116.892 240.294C115.75 239.757 114.133 239.46 113.097 240.004ZM118.425 242.456C118.446 242.565 118.455 242.671 118.454 242.774C118.425 243.334 117.985 243.87 117.239 244.262C115.848 244.993 114.395 244.814 113.831 244.232C113.303 243.686 112.762 242.427 112.709 241.641C112.672 241.078 112.877 240.675 113.326 240.439C114.086 240.039 115.465 240.165 116.692 240.741C117.642 241.194 118.292 241.832 118.425 242.456Z" fill="#44A798"/>
<path d="M147.461 222.584C147.705 225.26 151.428 228.195 153.016 229.331C153.767 229.862 154.519 230.353 155.273 230.794L155.301 230.114C154.654 229.727 154 229.3 153.366 228.844C150.199 226.573 148.208 224.218 148.055 222.528C147.928 221.17 149.038 220.252 151.351 219.802C152.624 219.552 154.159 219.764 155.698 220.146L155.722 219.535C154.153 219.152 152.577 218.959 151.234 219.216C149.406 219.565 147.266 220.442 147.461 222.584Z" fill="#44A798"/>
<path d="M124.62 214.448C124.514 216.087 125.14 217.746 126.522 219.545C128.695 222.358 131.955 224.062 135.097 225.711C135.294 225.809 135.48 225.906 135.666 226.014C142.53 229.615 148.089 232.984 152.892 237.726C153.104 237.935 153.346 238.165 153.606 238.426C153.992 238.803 154.436 239.231 154.908 239.701L154.941 238.891C154.613 238.567 154.304 238.274 154.024 238.002C153.763 237.751 153.522 237.511 153.309 237.312C148.448 232.517 142.85 229.127 135.938 225.494C135.751 225.396 135.555 225.298 135.358 225.19C132.265 223.573 129.074 221.902 126.977 219.193C125.69 217.518 125.1 215.98 125.199 214.501C125.316 212.561 125.892 210.94 126.859 209.816C127.91 208.595 129.346 208.02 131.136 208.132C134.306 208.318 137.122 209.844 139.85 211.325C142.568 212.797 145.365 214.312 148.591 214.591C151.318 214.819 153.855 214.56 155.938 213.861L155.963 213.22C153.93 213.941 151.392 214.221 148.645 213.991C145.548 213.728 142.801 212.235 140.142 210.796C137.365 209.292 134.49 207.734 131.18 207.532C127.421 207.292 124.899 209.948 124.62 214.448Z" fill="#44A798"/>
</g>
</g>
<path d="M334.393 0H266L340.561 70.1721L415.927 139L417 79.8511L400.371 65.0638L417 49.47L415.927 0H400.371L367.65 33.0696L334.393 0Z" fill="#D9A41D" fill-opacity="0.2"/>
</svg>
